<svg xmlns="http://www.w3.org/2000/svg" viewBox="0 0 100 100"><defs><style>.a{fill:#9583ad;}</style></defs><title>icon_shock</title><path class="a" d="M10.05,8.93A5.46,5.46,0,0,0,4.6,14.39v36a5.46,5.46,0,0,0,10.91,0v-36A5.46,5.46,0,0,0,10.05,8.93Z"/><path class="a" d="M46.06,2.38a5.46,5.46,0,0,0-5.45,5.46V60.22a5.46,5.46,0,1,0,10.91,0V7.84A5.46,5.46,0,0,0,46.06,2.38Z"/><path class="a" d="M90.26,11.66a5.45,5.45,0,0,0-5.46,5.46V92.41a5.46,5.46,0,1,0,10.91,0V17.12A5.45,5.45,0,0,0,90.26,11.66Z"/></svg>