<svg xmlns="http://www.w3.org/2000/svg" viewBox="0 0 100 100"><defs><style>.a{fill:#1e110a;}</style></defs><title>icon_trouble</title><path class="a" d="M95.88,36.41c-2.11-2.45-5.65-4.27-9.34-5.68C82.75,14.68,75,5.21,63.33,2.49,56.18.83,45.53.77,37.08,5.58c-6.8,3.89-11.1,12.3-14.55,19l-.73,1.43c-.12.23-.24.46-.35.69A24.85,24.85,0,0,0,16,29.53C5.1,36.88,1.4,46.25,5.8,55.29A28,28,0,0,0,.57,66.59,16.54,16.54,0,0,0,6.05,82.7c4.64,4.14,10.23,5.81,16,6.44a36.52,36.52,0,0,0,2.87,3.6A21.08,21.08,0,0,0,41,99.86c.6,0,1.21,0,1.82-.07C50.54,99.24,59,95,65,89c1-.2,1.9-.42,2.77-.68a19.56,19.56,0,0,0,6-1.64,9.66,9.66,0,0,0,3-2c9.4-1,16.42-3.36,18.08-6.35a5.33,5.33,0,0,0,.58-4.38A5.6,5.6,0,0,0,94,71.69c3.28-5,4.9-11.45,4.91-19.59,0-.57,0-1.17,0-1.79C99,45.8,99.13,40.18,95.88,36.41Zm-11.49,8.3c-1.53.11-3.07.15-4.56.2-1.33,0-2.67.08-4,.16a50.75,50.75,0,0,0-1.88-13.7l1.23.34,1.69.47c1.71.49,3.85,1.08,6,1.81A98.41,98.41,0,0,1,84.39,44.71Zm-3.42,8a7.9,7.9,0,0,0-1.57-3.48l.56,0c1,0,2.05-.06,3.09-.11A22.18,22.18,0,0,1,81,52.71ZM20.25,48.43c0,.24,0,.48.05.71.07,1,.14,2,.17,2.86v.58c.17,5.57.58,11.81,1.93,16.79a52,52,0,0,1-4.08-3.82,62.43,62.43,0,0,1,.36-16.26C19.21,49,19.73,48.69,20.25,48.43ZM69,30.27A21.27,21.27,0,0,1,70,33a7.93,7.93,0,0,0-.68-.62c-4.74-3.82-17.53,2-17.66,2.08-.53.26-1,.55-1.57.84a64.07,64.07,0,0,0-12.11-3,21.46,21.46,0,0,1,3-2.44c.4-.27.85-.55,1.35-.82l1.32,0C52.38,28.93,60.74,28.81,69,30.27ZM55,24.73c3.33-.64,6.42-.81,8.34-.15a7.61,7.61,0,0,1,1.65.79C61.66,25,58.32,24.81,55,24.73Zm7.23,35.66c-1,2.42-3.9,3.74-7.28,4.46a20.94,20.94,0,0,1,7.67-11.06A16,16,0,0,1,62.23,60.39Zm.87,9c-1.23,1-2.39,2-3.43,2.9-1.44,1.3-2.94,2.58-4.42,3.86a42.12,42.12,0,0,1-1.42-4.83c.05-.67.11-1.34.19-2,3.88-.62,7.65-1.84,10.11-4.28C63.86,66.57,63.5,68,63.1,69.44Zm-38.32-17v-.58c0-.93-.1-1.95-.18-3-.05-.66-.09-1.36-.13-2.07.87-.26,1.77-.5,2.72-.73a48,48,0,0,0-.35,5.37c0,1.7-.15,3.66-.3,5.74-.21,3.12-.44,6.44-.34,9.63A83.88,83.88,0,0,1,24.78,52.45Zm10-16.15,1,.09a13.21,13.21,0,0,0-.53,4c-.83.08-1.65.17-2.47.27A22.34,22.34,0,0,1,34.77,36.3Zm21,11c-.93.07-1.85.13-2.78.23q.84-.54,1.71-1ZM44.22,39.53l-.59.55c-1.37,0-2.76,0-4.14.06a8.15,8.15,0,0,1,.34-2.48A14.57,14.57,0,0,1,44.22,39.53Zm-8.63,5.18c.25,1.54.6,3.14,1,4.76-.16.29-.3.6-.45.9a13.45,13.45,0,0,0-5.06,2.35c0-.43,0-.85,0-1.27a41.61,41.61,0,0,1,.51-6.25C32.93,45,34.25,44.84,35.59,44.71ZM31,68.79c-.05.67-.11,1.34-.14,2-.13-.73-.21-1.51-.28-2.31Q30.81,68.66,31,68.79Zm1.16-7.38c-.09-2.56.31-4.14,1.51-5.23-.47,1.33-.9,2.68-1.25,4.09C32.34,60.65,32.27,61,32.18,61.41Zm13.21-17c1.4.05,2.78.15,4.12.29a44.34,44.34,0,0,0-4.87,3.91c-1,.16-1.91.34-2.86.52A33.78,33.78,0,0,1,45.39,44.44Zm9.12,8.94a10.66,10.66,0,0,1,3.8-1.61,24.72,24.72,0,0,0-5.7,7.36C52.79,56.59,53.37,54.51,54.51,53.38Zm7-12.17a2.13,2.13,0,0,0-1.83-1.31,38.39,38.39,0,0,0-4.26-2.41c4.86-1.92,10.25-2.56,11.21-1.78,1.78,1.44,2.75,5.53,3.31,10.11a27,27,0,0,0-2.83.76c-.4-.31-.82-.62-1.24-.91A21.63,21.63,0,0,0,61.46,41.21Zm-33.41.24c-1.25.25-2.46.54-3.61.85a10.83,10.83,0,0,1,.86-3.91c.85-1.78,2.22-2.27,4.7-2.3A28.58,28.58,0,0,0,28.05,41.45ZM38.48,55.59l0,.09-.13.18C38.41,55.77,38.44,55.68,38.48,55.59Zm.43,8.14a30.82,30.82,0,0,1,1.49-3c.63,1.6,1.32,3.27,2.07,5h-.13c-1,0-1.92,0-2.86.08l-1.15,0A11.08,11.08,0,0,1,38.91,63.73Zm4.9-6.08c-.17-.43-.33-.86-.48-1.28a38,38,0,0,1,3.27-3.69c1.16-.18,2.33-.34,3.49-.49-1.84,3.33-2.12,8.38-1.6,13.42l-1.32,0C45.88,62.9,44.77,60.15,43.81,57.65Zm13.85,23a6,6,0,0,1-.42-.51c.79-.67,1.59-1.35,2.38-2l-.13.26a11.23,11.23,0,0,1-1.57,2.3Zm18.14-29a4,4,0,0,1,1,2.93,6.09,6.09,0,0,1-1.06,3.23c0-1.16,0-2.34,0-3.53ZM39.22,9.32C48.73,3.9,60.16,6.17,62.35,6.68c9.33,2.17,15.8,9.69,19.35,22.42-1.3-.39-2.55-.74-3.68-1.06l-1.65-.47c-1.52-.43-3.05-.81-4.58-1.13a13.1,13.1,0,0,0-7.05-5.93c-6.06-2.07-17.23,1.19-23.47,4.27-1.57,0-3.14,0-4.7,0a63.49,63.49,0,0,0-9.58.54C30.07,19.36,33.89,12.36,39.22,9.32ZM35.05,29.13a24.36,24.36,0,0,0-2.45,2.73c-3.2-.18-7.3-.32-10,2.77.57-1.44,1.17-2.89,1.85-4.33A40.12,40.12,0,0,1,35.05,29.13ZM20.12,42.43c0,.45,0,.89,0,1.34l-.35.14C19.85,43.42,20,42.92,20.12,42.43ZM18.4,33.1l.37-.24A76.71,76.71,0,0,0,15,46.57a38.68,38.68,0,0,0-6,5C6.1,43,13.49,36.41,18.4,33.1ZM14.11,52.63a74.49,74.49,0,0,0-.35,7.46A48.11,48.11,0,0,1,11,55.78,34.78,34.78,0,0,1,14.11,52.63ZM8.92,79.49A12.25,12.25,0,0,1,4.8,67.39a22.51,22.51,0,0,1,3.34-8,58.72,58.72,0,0,0,6.06,8,50.36,50.36,0,0,0,4.95,16.92A21.39,21.39,0,0,1,8.92,79.49Zm15.62,5.56a44.53,44.53,0,0,1-5-12.4,41.37,41.37,0,0,0,10.24,6.47,17,17,0,0,0,1.81,2.12,39.26,39.26,0,0,0,.94,3.92C29.87,85.21,27.17,85.22,24.54,85.05Zm3.54,4.81-.34-.38c2.15,0,4.27,0,6.34,0a34,34,0,0,0,3.13,5.76A16.67,16.67,0,0,1,28.08,89.86Zm9-4.79a.93.93,0,0,0,0-.13l.27.13Zm2.52,5.79c-.27-.49-.54-1-.79-1.5.72,0,1.42,0,2.13,0C40.47,89.85,40,90.35,39.58,90.86ZM35.94,76.75a3.58,3.58,0,0,0,.14-.64,1.9,1.9,0,0,1,.18-.39,16.13,16.13,0,0,0,1.46-5.57c.67,0,1.32,0,1.94-.06.88,0,1.78-.08,2.69-.08h2.17a60.46,60.46,0,0,0,4.7,7.84c0,.62-.07,1.26-.08,1.91A85.76,85.76,0,0,1,35.94,76.75ZM42.52,95.5l-1.23.06a64.87,64.87,0,0,1,5.58-6.17h0c2.46,0,4.89,0,7.31-.17a15.93,15.93,0,0,0,3.41.45A30.56,30.56,0,0,1,42.52,95.5ZM66,80.9c-1,0-2,0-3,0l.23-.4a45.59,45.59,0,0,0,3.6-8.54l1.62-1.3,2.24-1.81A32.64,32.64,0,0,1,66,80.9Zm2.5-15.83a42.37,42.37,0,0,0,.65-7L70.8,59.5c.06,1.31.13,2.48.22,3.47C70.18,63.68,69.33,64.38,68.49,65.07ZM79.23,75.46c-.08-1.09-.21-2.17-.34-3.2-.06-.52-.13-1-.18-1.55-.17-1.44-.37-2.82-.63-4.16l.73.8a14.46,14.46,0,0,0,3.85,2.91A18.5,18.5,0,0,1,79.23,75.46ZM84,66.08a9,9,0,0,1-2-1.59c-.8-.9-1.79-1.93-2.92-3a44.65,44.65,0,0,0,5.81-6.88l0,1.82A41.07,41.07,0,0,1,84,66.08Zm2.48,6.08,1.08.51a19.1,19.1,0,0,1-2.31,1.85A22.87,22.87,0,0,0,86.51,72.16Zm4.6,4.06c-.37.67-1.64,1.36-3.63,2a23.63,23.63,0,0,0,3.8-3.13.71.71,0,0,1,.08.18A1.41,1.41,0,0,1,91.11,76.22Zm3.55-26c0,.64,0,1.26,0,1.86,0,7.29-1.36,12.94-4.18,17.19-.76-.39-1.57-.77-2.39-1.15l-.12,0a43.67,43.67,0,0,0,1.29-11.75,130.11,130.11,0,0,0-1.66-20.52,15.35,15.35,0,0,1,5,3.39C94.8,41.75,94.72,46.46,94.66,50.24Z"/></svg>