<svg xmlns="http://www.w3.org/2000/svg" viewBox="0 0 100 100"><defs><style>.a{fill:#c91b1d;}</style></defs><title>icon_angry</title><path class="a" d="M50.82,35.1A15.22,15.22,0,0,0,52.94,35c7.88-1.19,15.35-10.49,22-18.7l1.47-1.83A5.9,5.9,0,1,0,67.19,7l-1.5,1.86c-3.63,4.51-11.18,13.92-14.5,14.42-3.85.58-12.14-6.77-17.75-15.72a5.9,5.9,0,0,0-10,6.26C24.87,16.09,37.19,35.1,50.82,35.1Z"/><path class="a" d="M93.08,66.74C84,61.33,76.48,53.2,77,49.34c.43-3.33,9.67-11.09,14.1-14.81L92.9,33a5.9,5.9,0,0,0-7.62-9l-1.79,1.51c-8.07,6.77-17.21,14.45-18.22,22.35-1.86,14.5,19.34,27.59,21.76,29a5.88,5.88,0,0,0,8.09-2A5.91,5.91,0,0,0,93.08,66.74Z"/><path class="a" d="M47.29,65.82C39.39,66.83,31.72,76,25,84l-1.52,1.81a5.9,5.9,0,0,0,9,7.62L34,91.61C37.71,87.17,45.46,78,48.79,77.52c3.87-.5,12,7,17.4,16.11a5.88,5.88,0,0,0,5.07,2.87,5.77,5.77,0,0,0,3-.83,5.9,5.9,0,0,0,2-8.09C74.87,85.16,61.79,64,47.29,65.82Z"/><path class="a" d="M34.46,53C36.31,38.49,15.12,25.4,12.69,24a5.9,5.9,0,0,0-6,10.13c9.07,5.41,16.6,13.54,16.1,17.4-.42,3.32-9.65,11.07-14.08,14.8L6.82,67.84a5.9,5.9,0,0,0,7.63,9l1.81-1.53C24.31,68.56,33.45,60.88,34.46,53Z"/></svg>
