<svg xmlns="http://www.w3.org/2000/svg" viewBox="0 0 100 100"><defs><style>.a{fill:#ee8179;}</style></defs><title>icon_heart</title><path class="a" d="M47.12,1.49C35.9.9,31.32,10,31.41,14,29.86,10.32,22,3.85,12,9,1.34,14.36-1.51,31.14,9.66,41.4S33.43,55.11,40.42,56.5c5.82-4.11,15.93-12.38,22-26.29S59,2.13,47.12,1.49Z"/><path class="a" d="M90.46,66c-7.07-4.51-13.39-.28-14.81,2.35.36-3-2.38-10.07-10.75-10.44C56,57.53,48,67.37,51.47,78.14a47.27,47.27,0,0,0,14.4,21.11,47.26,47.26,0,0,0,23.94-9C98.85,83.47,98,70.81,90.46,66Z"/></svg>